<svg width="12" height="13" viewBox="0 0 12 13" fill="none" xmlns="http://www.w3.org/2000/svg">
<path d="M9.64052 7.51531L6.26552 10.8903C6.23069 10.9252 6.18934 10.9528 6.14381 10.9717C6.09829 10.9906 6.04949 11.0003 6.00021 11.0003C5.95093 11.0003 5.90213 10.9906 5.85661 10.9717C5.81108 10.9528 5.76972 10.9252 5.7349 10.8903L2.3599 7.51531C2.28953 7.44495 2.25 7.34951 2.25 7.25C2.25 7.15049 2.28953 7.05505 2.3599 6.98469C2.43026 6.91432 2.5257 6.87479 2.62521 6.87479C2.72472 6.87479 2.82016 6.91432 2.89052 6.98469L5.62521 9.71984V2.375C5.62521 2.27554 5.66472 2.18016 5.73504 2.10984C5.80537 2.03951 5.90075 2 6.00021 2C6.09966 2 6.19505 2.03951 6.26537 2.10984C6.3357 2.18016 6.37521 2.27554 6.37521 2.375V9.71984L9.1099 6.98469C9.18026 6.91432 9.2757 6.87479 9.37521 6.87479C9.47472 6.87479 9.57016 6.91432 9.64052 6.98469C9.71089 7.05505 9.75042 7.15049 9.75042 7.25C9.75042 7.34951 9.71089 7.44495 9.64052 7.51531Z" fill="#474747"/>
</svg>
