<svg width="12" height="12" viewBox="0 0 12 12" fill="none" xmlns="http://www.w3.org/2000/svg">
<path d="M10.5003 5.99996C10.5003 6.09942 10.4608 6.1948 10.3905 6.26513C10.3201 6.33546 10.2248 6.37496 10.1253 6.37496H2.78045L5.51561 9.10965C5.55045 9.14449 5.57809 9.18586 5.59694 9.23138C5.6158 9.2769 5.6255 9.32569 5.6255 9.37496C5.6255 9.42424 5.6158 9.47303 5.59694 9.51855C5.57809 9.56407 5.55045 9.60544 5.51561 9.64028C5.48077 9.67512 5.4394 9.70276 5.39388 9.72161C5.34836 9.74047 5.29957 9.75017 5.2503 9.75017C5.20102 9.75017 5.15223 9.74047 5.10671 9.72161C5.06119 9.70276 5.01982 9.67512 4.98498 9.64028L1.60998 6.26528C1.57512 6.23045 1.54746 6.18909 1.52859 6.14357C1.50971 6.09804 1.5 6.04924 1.5 5.99996C1.5 5.95068 1.50971 5.90189 1.52859 5.85636C1.54746 5.81084 1.57512 5.76948 1.60998 5.73465L4.98498 2.35965C5.05535 2.28929 5.15078 2.24976 5.2503 2.24976C5.34981 2.24976 5.44524 2.28929 5.51561 2.35965C5.58597 2.43002 5.6255 2.52545 5.6255 2.62496C5.6255 2.72448 5.58597 2.81991 5.51561 2.89028L2.78045 5.62496H10.1253C10.2248 5.62496 10.3201 5.66447 10.3905 5.7348C10.4608 5.80513 10.5003 5.90051 10.5003 5.99996Z" fill="#656565"/>
</svg>
