<svg width="14" height="15" viewBox="0 0 14 15" fill="none" xmlns="http://www.w3.org/2000/svg">
<path d="M12.2041 4.24172L11.3291 2.49172C11.2927 2.41903 11.2368 2.35792 11.1676 2.31522C11.0985 2.27253 11.0188 2.24994 10.9375 2.25H3.0625C2.98122 2.24994 2.90153 2.27253 2.83237 2.31522C2.76321 2.35792 2.70731 2.41903 2.67094 2.49172L1.79594 4.24172C1.76578 4.30258 1.75006 4.36958 1.75 4.4375V11.875C1.75 12.1071 1.84219 12.3296 2.00628 12.4937C2.17038 12.6578 2.39294 12.75 2.625 12.75H11.375C11.6071 12.75 11.8296 12.6578 11.9937 12.4937C12.1578 12.3296 12.25 12.1071 12.25 11.875V4.4375C12.2499 4.36958 12.2342 4.30258 12.2041 4.24172ZM3.33266 3.125H10.6673L11.1048 4H2.89516L3.33266 3.125ZM11.375 11.875H2.625V4.875H11.375V11.875ZM9.05953 8.50297C9.10021 8.5436 9.13248 8.59185 9.1545 8.64496C9.17651 8.69808 9.18784 8.75501 9.18784 8.8125C9.18784 8.86999 9.17651 8.92692 9.1545 8.98004C9.13248 9.03315 9.10021 9.0814 9.05953 9.12203L7.30953 10.872C7.2689 10.9127 7.22065 10.945 7.16754 10.967C7.11442 10.989 7.05749 11.0003 7 11.0003C6.94251 11.0003 6.88558 10.989 6.83246 10.967C6.77935 10.945 6.7311 10.9127 6.69047 10.872L4.94047 9.12203C4.85838 9.03994 4.81226 8.9286 4.81226 8.8125C4.81226 8.6964 4.85838 8.58506 4.94047 8.50297C5.02256 8.42088 5.1339 8.37476 5.25 8.37476C5.3661 8.37476 5.47744 8.42088 5.55953 8.50297L6.5625 9.50648V6.1875C6.5625 6.07147 6.60859 5.96019 6.69064 5.87814C6.77269 5.79609 6.88397 5.75 7 5.75C7.11603 5.75 7.22731 5.79609 7.30936 5.87814C7.39141 5.96019 7.4375 6.07147 7.4375 6.1875V9.50648L8.44047 8.50297C8.4811 8.46229 8.52935 8.43002 8.58246 8.408C8.63558 8.38599 8.69251 8.37466 8.75 8.37466C8.80749 8.37466 8.86442 8.38599 8.91754 8.408C8.97065 8.43002 9.0189 8.46229 9.05953 8.50297Z" fill="#191919"/>
</svg>
