<svg width="14" height="14" viewBox="0 0 14 14" fill="none" xmlns="http://www.w3.org/2000/svg">
<path d="M9.93477 9.31557C9.97545 9.3562 10.0077 9.40445 10.0297 9.45756C10.0518 9.51067 10.0631 9.56761 10.0631 9.6251C10.0631 9.68259 10.0518 9.73952 10.0297 9.79264C10.0077 9.84575 9.97545 9.894 9.93477 9.93463L7.30977 12.5596C7.26914 12.6003 7.22089 12.6326 7.16778 12.6546C7.11467 12.6766 7.05774 12.6879 7.00024 12.6879C6.94275 12.6879 6.88582 12.6766 6.83271 12.6546C6.77959 12.6326 6.73134 12.6003 6.69071 12.5596L4.06571 9.93463C3.98362 9.85254 3.9375 9.7412 3.9375 9.6251C3.9375 9.509 3.98362 9.39766 4.06571 9.31557C4.1478 9.23348 4.25915 9.18736 4.37524 9.18736C4.49134 9.18736 4.60268 9.23348 4.68477 9.31557L7.00024 11.6316L9.31571 9.31557C9.35634 9.27489 9.40459 9.24262 9.45771 9.2206C9.51082 9.19859 9.56775 9.18726 9.62524 9.18726C9.68274 9.18726 9.73967 9.19859 9.79278 9.2206C9.84589 9.24262 9.89414 9.27489 9.93477 9.31557ZM4.68477 4.68463L7.00024 2.36862L9.31571 4.68463C9.3978 4.76672 9.50915 4.81284 9.62524 4.81284C9.74134 4.81284 9.85268 4.76672 9.93477 4.68463C10.0169 4.60254 10.063 4.4912 10.063 4.3751C10.063 4.259 10.0169 4.14766 9.93477 4.06557L7.30977 1.44057C7.26914 1.39989 7.22089 1.36762 7.16778 1.34561C7.11467 1.32359 7.05774 1.31226 7.00024 1.31226C6.94275 1.31226 6.88582 1.32359 6.83271 1.34561C6.77959 1.36762 6.73134 1.39989 6.69071 1.44057L4.06571 4.06557C3.98362 4.14766 3.9375 4.259 3.9375 4.3751C3.9375 4.4912 3.98362 4.60254 4.06571 4.68463C4.1478 4.76672 4.25915 4.81284 4.37524 4.81284C4.49134 4.81284 4.60268 4.76672 4.68477 4.68463Z" fill="#474747"/>
</svg>
