<svg width="12" height="13" viewBox="0 0 12 13" fill="none" xmlns="http://www.w3.org/2000/svg">
<path d="M10.7655 4.14028L4.76552 10.1403C4.73069 10.1751 4.68934 10.2028 4.64381 10.2217C4.59829 10.2405 4.54949 10.2503 4.50021 10.2503C4.45093 10.2503 4.40213 10.2405 4.35661 10.2217C4.31108 10.2028 4.26972 10.1751 4.2349 10.1403L1.6099 7.51528C1.53953 7.44491 1.5 7.34948 1.5 7.24996C1.5 7.15045 1.53953 7.05502 1.6099 6.98465C1.68026 6.91429 1.7757 6.87476 1.87521 6.87476C1.97472 6.87476 2.07016 6.91429 2.14052 6.98465L4.50021 9.34481L10.2349 3.60965C10.3053 3.53929 10.4007 3.49976 10.5002 3.49976C10.5997 3.49976 10.6952 3.53929 10.7655 3.60965C10.8359 3.68002 10.8754 3.77545 10.8754 3.87496C10.8754 3.97448 10.8359 4.06991 10.7655 4.14028Z" fill="#474747"/>
</svg>
