<svg width="16" height="16" viewBox="0 0 16 16" fill="none" xmlns="http://www.w3.org/2000/svg">
    <path d="M12.5 2.5a.5.5 0 0 0 0 1 1 1 0 0 1 1 1V8h-11V4.5a1 1 0 0 1 1-1 .5.5 0 1 0 0-1 2 2 0 0 0-2 2v5.75a2.75 2.75 0 0 0 5.5 0V9h2v1.25a2.75 2.75 0 0 0 5.5 0V4.5a2 2 0 0 0-2-2zm.79 8.582L11.206 9H13.5v1.25c0 .29-.072.577-.21.832zM2.5 10.25V9.207l2.582 2.582A1.75 1.75 0 0 1 2.5 10.25zm3.5 0c0 .29-.072.577-.21.832L3.706 9H6v1.25zm4 0V9.207l2.582 2.582A1.75 1.75 0 0 1 10 10.25z" fill="#959595"/>
</svg>
