<svg width="14" height="15" viewBox="0 0 14 15" fill="none" xmlns="http://www.w3.org/2000/svg">
<path d="M12.25 8.375V11.875C12.25 11.991 12.2039 12.1023 12.1219 12.1844C12.0398 12.2664 11.9285 12.3125 11.8125 12.3125H2.1875C2.07147 12.3125 1.96019 12.2664 1.87814 12.1844C1.79609 12.1023 1.75 11.991 1.75 11.875V8.375C1.75 8.25897 1.79609 8.14769 1.87814 8.06564C1.96019 7.98359 2.07147 7.9375 2.1875 7.9375C2.30353 7.9375 2.41481 7.98359 2.49686 8.06564C2.57891 8.14769 2.625 8.25897 2.625 8.375V11.4375H11.375V8.375C11.375 8.25897 11.4211 8.14769 11.5031 8.06564C11.5852 7.98359 11.6965 7.9375 11.8125 7.9375C11.9285 7.9375 12.0398 7.98359 12.1219 8.06564C12.2039 8.14769 12.25 8.25897 12.25 8.375ZM6.69047 8.68453C6.7311 8.72521 6.77935 8.75748 6.83246 8.7795C6.88558 8.80151 6.94251 8.81284 7 8.81284C7.05749 8.81284 7.11442 8.80151 7.16754 8.7795C7.22065 8.75748 7.2689 8.72521 7.30953 8.68453L9.49703 6.49703C9.53768 6.45638 9.56992 6.40813 9.59192 6.35502C9.61392 6.30191 9.62524 6.24499 9.62524 6.1875C9.62524 6.13001 9.61392 6.07309 9.59192 6.01998C9.56992 5.96687 9.53768 5.91862 9.49703 5.87797C9.45638 5.83732 9.40813 5.80508 9.35502 5.78308C9.30191 5.76108 9.24499 5.74976 9.1875 5.74976C9.13001 5.74976 9.07309 5.76108 9.01998 5.78308C8.96687 5.80508 8.91862 5.83732 8.87797 5.87797L7.4375 7.31898V2.25C7.4375 2.13397 7.39141 2.02269 7.30936 1.94064C7.22731 1.85859 7.11603 1.8125 7 1.8125C6.88397 1.8125 6.77269 1.85859 6.69064 1.94064C6.60859 2.02269 6.5625 2.13397 6.5625 2.25V7.31898L5.12203 5.87797C5.03994 5.79588 4.9286 5.74976 4.8125 5.74976C4.6964 5.74976 4.58506 5.79588 4.50297 5.87797C4.42088 5.96006 4.37476 6.0714 4.37476 6.1875C4.37476 6.3036 4.42088 6.41494 4.50297 6.49703L6.69047 8.68453Z" fill="#191919"/>
</svg>
