<svg width="16" height="17" viewBox="0 0 16 17" fill="none" xmlns="http://www.w3.org/2000/svg">
<path d="M14.9483 6.57866C14.8858 6.38649 14.7678 6.21712 14.6092 6.09188C14.4506 5.96665 14.2585 5.89116 14.0571 5.87491L10.3696 5.57741L8.9458 2.13429C8.86881 1.94667 8.73776 1.78619 8.56932 1.67325C8.40088 1.56031 8.20267 1.5 7.99987 1.5C7.79707 1.5 7.59885 1.56031 7.43041 1.67325C7.26197 1.78619 7.13093 1.94667 7.05393 2.13429L5.63143 5.57679L1.94205 5.87491C1.74029 5.89198 1.54805 5.9682 1.38941 6.09404C1.23078 6.21988 1.11281 6.38973 1.05028 6.58232C0.987751 6.77491 0.983448 6.98167 1.03791 7.17669C1.09237 7.37172 1.20317 7.54633 1.35643 7.67866L4.16893 10.1055L3.31205 13.7343C3.26413 13.9314 3.27587 14.1384 3.34577 14.3288C3.41567 14.5193 3.54058 14.6847 3.70465 14.804C3.86873 14.9234 4.06456 14.9913 4.26729 14.9991C4.47002 15.0069 4.67051 14.9544 4.8433 14.848L7.99955 12.9055L11.1577 14.848C11.3305 14.9531 11.5306 15.0047 11.7327 14.9962C11.9348 14.9878 12.1299 14.9198 12.2934 14.8007C12.4569 14.6816 12.5816 14.5168 12.6516 14.3271C12.7217 14.1373 12.734 13.931 12.6871 13.7343L11.8271 10.1049L14.6396 7.67804C14.7941 7.54593 14.9059 7.37093 14.9608 7.17522C15.0158 6.97951 15.0114 6.77189 14.9483 6.57866ZM13.9896 6.92054L10.9458 9.54554C10.8764 9.60537 10.8248 9.68312 10.7965 9.77031C10.7683 9.85749 10.7646 9.95076 10.7858 10.0399L11.7158 13.9649C11.7182 13.9703 11.7184 13.9764 11.7165 13.982C11.7145 13.9876 11.7105 13.9922 11.7052 13.9949C11.6939 14.0037 11.6908 14.0018 11.6814 13.9949L8.26143 11.8918C8.18266 11.8434 8.09201 11.8177 7.99955 11.8177C7.90709 11.8177 7.81644 11.8434 7.73768 11.8918L4.31768 13.9962C4.3083 14.0018 4.3058 14.0037 4.29393 13.9962C4.28865 13.9935 4.28461 13.9889 4.28263 13.9833C4.28066 13.9777 4.2809 13.9716 4.2833 13.9662L5.2133 10.0412C5.2345 9.95201 5.23078 9.85874 5.20257 9.77156C5.17435 9.68437 5.12272 9.60662 5.0533 9.54679L2.00955 6.92179C2.00205 6.91554 1.99518 6.90991 2.00143 6.89054C2.00768 6.87116 2.01268 6.87366 2.02205 6.87241L6.01705 6.54991C6.10868 6.54205 6.19637 6.50907 6.27047 6.4546C6.34457 6.40013 6.40221 6.32628 6.43705 6.24116L7.9758 2.51554C7.9808 2.50491 7.98268 2.49991 7.99768 2.49991C8.01268 2.49991 8.01455 2.50491 8.01955 2.51554L9.56205 6.24116C9.59722 6.32631 9.65523 6.40008 9.72967 6.45434C9.80412 6.50861 9.89211 6.54125 9.98393 6.54866L13.9789 6.87116C13.9883 6.87116 13.9939 6.87116 13.9996 6.88929C14.0052 6.90741 13.9996 6.91429 13.9896 6.92054Z" fill="#656565"/>
</svg>
