<svg width="14" height="14" viewBox="0 0 14 14" fill="none" xmlns="http://www.w3.org/2000/svg">
<path d="M2.625 9.84375C2.625 10.4453 3.01766 10.9375 3.5 10.9375C3.60557 10.9351 3.70956 10.9113 3.80564 10.8675C3.90172 10.8237 3.98789 10.7608 4.05891 10.6827C4.13951 10.6006 4.24921 10.5535 4.36425 10.5517C4.47929 10.5499 4.5904 10.5935 4.67354 10.673C4.75667 10.7526 4.80512 10.8617 4.80841 10.9767C4.8117 11.0917 4.76955 11.2033 4.69109 11.2875C4.53876 11.4515 4.35454 11.5826 4.14972 11.6729C3.94491 11.7632 3.72382 11.8107 3.5 11.8125C2.53477 11.8125 1.75 10.9293 1.75 9.84375C1.75 8.7582 2.53477 7.875 3.5 7.875C3.72382 7.87681 3.94491 7.92431 4.14972 8.01459C4.35454 8.10486 4.53876 8.23601 4.69109 8.4C4.76955 8.48415 4.8117 8.59582 4.80841 8.71083C4.80512 8.82584 4.75667 8.93492 4.67354 9.01445C4.5904 9.09399 4.47929 9.13758 4.36425 9.13578C4.24921 9.13398 4.13951 9.08694 4.05891 9.00484C3.98789 8.92669 3.90172 8.8638 3.80564 8.81999C3.70956 8.77618 3.60557 8.75237 3.5 8.75C3.01766 8.75 2.625 9.24219 2.625 9.84375ZM6.97813 9.36852C6.75938 9.30508 6.53297 9.24 6.40664 9.15852C6.33828 9.11422 6.33938 9.10383 6.34539 9.05461C6.34635 9.01487 6.35677 8.97593 6.37579 8.94102C6.39481 8.90612 6.42189 8.87625 6.45477 8.85391C6.70633 8.68328 7.29367 8.7593 7.53867 8.82328C7.65093 8.85338 7.77055 8.83764 7.87121 8.77954C7.97187 8.72145 8.04533 8.62574 8.07543 8.51348C8.10553 8.40122 8.08979 8.2816 8.03169 8.18093C7.97359 8.08027 7.87789 8.00681 7.76562 7.97672C7.64969 7.94664 6.61719 7.69125 5.96969 8.12766C5.83276 8.21955 5.7177 8.34042 5.63265 8.4817C5.5476 8.62298 5.49463 8.78122 5.4775 8.94523C5.36813 9.81367 6.22398 10.0614 6.73531 10.2091C7.39484 10.3999 7.45281 10.4781 7.43422 10.6241C7.41727 10.7559 7.36531 10.8068 7.31719 10.8391C7.06563 11.0064 6.48758 10.9244 6.24805 10.8587C6.13608 10.8275 6.01627 10.842 5.915 10.8991C5.81372 10.9561 5.73926 11.0511 5.70801 11.1631C5.67675 11.2751 5.69126 11.3949 5.74833 11.4961C5.8054 11.5974 5.90037 11.6719 6.01234 11.7031C6.28359 11.7742 6.56266 11.8109 6.84305 11.8125C7.16133 11.8125 7.5157 11.7578 7.79953 11.5686C7.93962 11.4755 8.05735 11.3525 8.14425 11.2085C8.23114 11.0645 8.28506 10.903 8.30211 10.7357C8.42188 9.78906 7.51898 9.52492 6.97813 9.36852ZM11.5221 7.9007C11.468 7.88133 11.4106 7.87281 11.3532 7.87563C11.2958 7.87845 11.2395 7.89255 11.1875 7.91713C11.1356 7.94171 11.089 7.97629 11.0504 8.01889C11.0118 8.06148 10.982 8.11127 10.9627 8.16539L10.2812 10.074L9.5993 8.16539C9.56028 8.0561 9.47945 7.96679 9.37458 7.9171C9.26972 7.86741 9.1494 7.86141 9.04012 7.90043C8.93083 7.93945 8.84152 8.02028 8.79183 8.12514C8.74214 8.23001 8.73614 8.35032 8.77516 8.45961L9.86891 11.5221C9.89923 11.6071 9.95511 11.6807 10.0289 11.7327C10.1027 11.7847 10.1907 11.8126 10.281 11.8126C10.3712 11.8126 10.4593 11.7847 10.5331 11.7327C10.6068 11.6807 10.6627 11.6071 10.693 11.5221L11.7868 8.45961C11.8258 8.35039 11.8198 8.23018 11.7701 8.12538C11.7205 8.02058 11.6313 7.93977 11.5221 7.9007ZM11.8125 4.8125V6.125C11.8125 6.24103 11.7664 6.35231 11.6844 6.43436C11.6023 6.51641 11.491 6.5625 11.375 6.5625C11.259 6.5625 11.1477 6.51641 11.0656 6.43436C10.9836 6.35231 10.9375 6.24103 10.9375 6.125V5.25H8.3125C8.19647 5.25 8.08519 5.20391 8.00314 5.12186C7.92109 5.03981 7.875 4.92853 7.875 4.8125V2.1875H3.0625V6.125C3.0625 6.24103 3.01641 6.35231 2.93436 6.43436C2.85231 6.51641 2.74103 6.5625 2.625 6.5625C2.50897 6.5625 2.39769 6.51641 2.31564 6.43436C2.23359 6.35231 2.1875 6.24103 2.1875 6.125V2.1875C2.1875 1.95544 2.27969 1.73288 2.44378 1.56878C2.60788 1.40469 2.83044 1.3125 3.0625 1.3125H8.3125C8.36997 1.31245 8.42689 1.32373 8.48 1.34569C8.53311 1.36765 8.58137 1.39985 8.62203 1.44047L11.6845 4.50297C11.7251 4.54363 11.7574 4.59189 11.7793 4.645C11.8013 4.69811 11.8125 4.75503 11.8125 4.8125ZM10.319 4.375L8.75 2.80602V4.375H10.319Z" fill="#191919"/>
</svg>
