<svg width="16" height="16" viewBox="0 0 16 16" fill="none" xmlns="http://www.w3.org/2000/svg">
<g clip-path="url(#clip0_3980_13676)">
<path d="M13.2144 3.72531C13.2144 3.19423 12.784 2.76538 12.2549 2.76538C11.7257 2.76538 11.2949 3.19423 11.2949 3.72531C11.2949 4.25445 11.7257 4.68327 12.2549 4.68327C12.784 4.68327 13.2144 4.25445 13.2144 3.72531Z" fill="white"/>
<path d="M14.4929 11.2183C14.4574 11.9974 14.3271 12.4207 14.2189 12.7018C14.0736 13.0746 13.9002 13.3411 13.6191 13.6207C13.3411 13.9002 13.0745 14.0732 12.7018 14.2169C12.4206 14.3267 11.9958 14.4574 11.2167 14.4945C10.3744 14.5316 10.1249 14.5395 7.98903 14.5395C5.85516 14.5395 5.6036 14.5316 4.76135 14.4945C3.98229 14.4574 3.55937 14.3267 3.2782 14.2169C2.90348 14.0732 2.63893 13.9002 2.35936 13.6207C2.07781 13.3411 1.90447 13.0746 1.76113 12.7018C1.65292 12.4207 1.52066 11.9974 1.48707 11.2183C1.44603 10.376 1.4385 10.1225 1.4385 7.99099C1.4385 5.85514 1.44603 5.60361 1.48707 4.76133C1.52066 3.98227 1.65292 3.55938 1.76113 3.27585C1.90447 2.90348 2.07781 2.63852 2.35936 2.35895C2.63893 2.07979 2.90348 1.90643 3.2782 1.76113C3.55937 1.65096 3.98229 1.52223 4.76135 1.48512C5.6036 1.44798 5.85516 1.4385 7.98903 1.4385C10.1249 1.4385 10.3744 1.44798 11.2167 1.48512C11.9958 1.52223 12.4206 1.65096 12.7018 1.76113C13.0745 1.90643 13.3411 2.07979 13.6191 2.35895C13.9002 2.63852 14.0736 2.90348 14.2189 3.27585C14.3271 3.55938 14.4574 3.98227 14.4929 4.76133C14.532 5.60361 14.5415 5.85514 14.5415 7.99099C14.5415 10.1225 14.532 10.376 14.4929 11.2183ZM15.9314 4.6958C15.8924 3.84444 15.7581 3.26281 15.5587 2.75621C15.3557 2.23062 15.0837 1.78521 14.6382 1.33979C14.1948 0.896367 13.7494 0.624292 13.2238 0.418968C12.7152 0.221523 12.1355 0.0856773 11.2838 0.0485696C10.4321 0.00749311 10.16 0 7.98903 0C5.81998 0 5.54598 0.00749311 4.69423 0.0485696C3.84446 0.0856773 3.26517 0.221523 2.75422 0.418968C2.23062 0.624292 1.78521 0.896367 1.34178 1.33979C0.896365 1.78521 0.624291 2.23062 0.419353 2.75621C0.221907 3.26281 0.0876611 3.84444 0.0465849 4.6958C0.00947688 5.54755 0 5.82 0 7.99099C0 10.16 0.00947688 10.4321 0.0465849 11.2838C0.0876611 12.1336 0.221907 12.7148 0.419353 13.2238C0.624291 13.7474 0.896365 14.1948 1.34178 14.6382C1.78521 15.0817 2.23062 15.3557 2.75422 15.5607C3.26517 15.7581 3.84446 15.8924 4.69423 15.9315C5.54598 15.9706 5.81998 15.98 7.98903 15.98C10.16 15.98 10.4321 15.9706 11.2838 15.9315C12.1355 15.8924 12.7152 15.7581 13.2238 15.5607C13.7494 15.3557 14.1948 15.0817 14.6382 14.6382C15.0837 14.1948 15.3557 13.7474 15.5587 13.2238C15.7581 12.7148 15.8924 12.1336 15.9314 11.2838C15.9705 10.4321 15.98 10.16 15.98 7.99099C15.98 5.82 15.9705 5.54755 15.9314 4.6958Z" fill="white"/>
<path d="M7.98921 10.652C6.5191 10.652 5.3262 9.46105 5.3262 7.99094C5.3262 6.51846 6.5191 5.32598 7.98921 5.32598C9.45974 5.32598 10.6542 6.51846 10.6542 7.99094C10.6542 9.46105 9.45974 10.652 7.98921 10.652ZM7.98921 3.8855C5.72305 3.8855 3.8877 5.72478 3.8877 7.99094C3.8877 10.2551 5.72305 12.0925 7.98921 12.0925C10.2554 12.0925 12.0927 10.2551 12.0927 7.99094C12.0927 5.72478 10.2554 3.8855 7.98921 3.8855Z" fill="white"/>
</g>
<defs>
<clipPath id="clip0_3980_13676">
<rect width="16" height="16" fill="white"/>
</clipPath>
</defs>
</svg>
