<svg width="19" height="19" viewBox="0 0 19 19" fill="none" xmlns="http://www.w3.org/2000/svg">
<g clip-path="url(#clip0_3739_8661)">
<path d="M15.2268 4.69085C15.2268 4.09338 14.7426 3.61093 14.1473 3.61093C13.552 3.61093 13.0674 4.09338 13.0674 4.69085C13.0674 5.28613 13.552 5.76856 14.1473 5.76856C14.7426 5.76856 15.2268 5.28613 15.2268 4.69085Z" fill="url(#paint0_linear_3739_8661)"/>
<path d="M16.6649 13.1204C16.6249 13.997 16.4783 14.4731 16.3566 14.7894C16.1931 15.2088 15.9981 15.5087 15.6818 15.8231C15.3691 16.1377 15.0692 16.3322 14.6499 16.4939C14.3336 16.6174 13.8556 16.7645 12.9791 16.8062C12.0316 16.848 11.7508 16.8569 9.34801 16.8569C6.94741 16.8569 6.6644 16.848 5.71687 16.8062C4.84043 16.7645 4.36464 16.6174 4.04833 16.4939C3.62677 16.3322 3.32915 16.1377 3.01463 15.8231C2.69789 15.5087 2.50288 15.2088 2.34163 14.7894C2.21988 14.4731 2.07109 13.997 2.03331 13.1204C1.98713 12.1729 1.97867 11.8877 1.97867 9.48977C1.97867 7.08694 1.98713 6.80397 2.03331 5.8564C2.07109 4.97997 2.21988 4.50421 2.34163 4.18523C2.50288 3.76633 2.69789 3.46824 3.01463 3.15372C3.32915 2.83968 3.62677 2.64464 4.04833 2.48118C4.36464 2.35724 4.84043 2.21241 5.71687 2.17067C6.6644 2.12889 6.94741 2.11822 9.34801 2.11822C11.7508 2.11822 12.0316 2.12889 12.9791 2.17067C13.8556 2.21241 14.3336 2.35724 14.6499 2.48118C15.0692 2.64464 15.3691 2.83968 15.6818 3.15372C15.9981 3.46824 16.1931 3.76633 16.3566 4.18523C16.4783 4.50421 16.6249 4.97997 16.6649 5.8564C16.7089 6.80397 16.7195 7.08694 16.7195 9.48977C16.7195 11.8877 16.7089 12.1729 16.6649 13.1204ZM18.2832 5.78268C18.2393 4.82491 18.0882 4.17057 17.8639 3.60064C17.6356 3.00936 17.3295 2.50827 16.8284 2.00718C16.3295 1.50832 15.8284 1.20224 15.2371 0.971247C14.665 0.749122 14.0128 0.596295 13.0546 0.554549C12.0964 0.508338 11.7904 0.499908 9.34801 0.499908C6.90783 0.499908 6.59958 0.508338 5.64136 0.554549C4.68537 0.596295 4.03367 0.749122 3.45885 0.971247C2.8698 1.20224 2.36871 1.50832 1.86985 2.00718C1.36876 2.50827 1.06268 3.00936 0.832123 3.60064C0.609997 4.17057 0.45897 4.82491 0.41276 5.78268C0.371013 6.7409 0.360352 7.0474 0.360352 9.48977C0.360352 11.93 0.371013 12.236 0.41276 13.1942C0.45897 14.1502 0.609997 14.8041 0.832123 15.3767C1.06268 15.9658 1.36876 16.4691 1.86985 16.9679C2.36871 17.4668 2.8698 17.7751 3.45885 18.0057C4.03367 18.2278 4.68537 18.3788 5.64136 18.4228C6.59958 18.4668 6.90783 18.4774 9.34801 18.4774C11.7904 18.4774 12.0964 18.4668 13.0546 18.4228C14.0128 18.3788 14.665 18.2278 15.2371 18.0057C15.8284 17.7751 16.3295 17.4668 16.8284 16.9679C17.3295 16.4691 17.6356 15.9658 17.8639 15.3767C18.0882 14.8041 18.2393 14.1502 18.2832 13.1942C18.3272 12.236 18.3379 11.93 18.3379 9.48977C18.3379 7.0474 18.3272 6.7409 18.2832 5.78268Z" fill="url(#paint1_linear_3739_8661)"/>
<path d="M9.3476 12.4836C7.69372 12.4836 6.35171 11.1437 6.35171 9.48986C6.35171 7.83333 7.69372 6.49179 9.3476 6.49179C11.0019 6.49179 12.3457 7.83333 12.3457 9.48986C12.3457 11.1437 11.0019 12.4836 9.3476 12.4836ZM9.3476 4.87125C6.79817 4.87125 4.7334 6.94044 4.7334 9.48986C4.7334 12.0371 6.79817 14.1041 9.3476 14.1041C11.897 14.1041 13.964 12.0371 13.964 9.48986C13.964 6.94044 11.897 4.87125 9.3476 4.87125Z" fill="url(#paint2_linear_3739_8661)"/>
</g>
<defs>
<linearGradient id="paint0_linear_3739_8661" x1="0.522807" y1="18.2916" x2="16.8408" y2="1.97366" gradientUnits="userSpaceOnUse">
<stop stop-color="#FFD521"/>
<stop offset="0.05" stop-color="#FFD521"/>
<stop offset="0.501119" stop-color="#F50000"/>
<stop offset="0.95" stop-color="#B900B4"/>
<stop offset="0.950079" stop-color="#B900B4"/>
<stop offset="1" stop-color="#B900B4"/>
</linearGradient>
<linearGradient id="paint1_linear_3739_8661" x1="0.522506" y1="18.314" x2="16.8539" y2="1.98253" gradientUnits="userSpaceOnUse">
<stop stop-color="#FFD521"/>
<stop offset="0.05" stop-color="#FFD521"/>
<stop offset="0.501119" stop-color="#F50000"/>
<stop offset="0.95" stop-color="#B900B4"/>
<stop offset="0.950079" stop-color="#B900B4"/>
<stop offset="1" stop-color="#B900B4"/>
</linearGradient>
<linearGradient id="paint2_linear_3739_8661" x1="0.526341" y1="18.3145" x2="16.8538" y2="1.98699" gradientUnits="userSpaceOnUse">
<stop stop-color="#FFD521"/>
<stop offset="0.05" stop-color="#FFD521"/>
<stop offset="0.501119" stop-color="#F50000"/>
<stop offset="0.95" stop-color="#B900B4"/>
<stop offset="0.950079" stop-color="#B900B4"/>
<stop offset="1" stop-color="#B900B4"/>
</linearGradient>
<clipPath id="clip0_3739_8661">
<rect width="18" height="18" fill="white" transform="translate(0.360352 0.5)"/>
</clipPath>
</defs>
</svg>
