<svg width="16" height="17" viewBox="0 0 16 17" fill="none" xmlns="http://www.w3.org/2000/svg">
<path d="M10.3539 6.14626C10.4004 6.19269 10.4373 6.24784 10.4625 6.30854C10.4876 6.36924 10.5006 6.4343 10.5006 6.50001C10.5006 6.56572 10.4876 6.63078 10.4625 6.69148C10.4373 6.75218 10.4004 6.80732 10.3539 6.85376L6.35393 10.8538C6.30747 10.9002 6.25232 10.9371 6.19163 10.9622C6.13093 10.9873 6.06588 11.0003 6.00018 11.0003C5.93448 11.0003 5.86943 10.9873 5.80873 10.9622C5.74803 10.9371 5.69288 10.9002 5.64643 10.8538C5.59997 10.8073 5.56312 10.7522 5.53798 10.6915C5.51284 10.6308 5.4999 10.5657 5.4999 10.5C5.4999 10.4343 5.51284 10.3693 5.53798 10.3086C5.56312 10.2479 5.59997 10.1927 5.64643 10.1463L9.64643 6.14626C9.69286 6.09977 9.74801 6.06289 9.80871 6.03773C9.86941 6.01257 9.93447 5.99961 10.0002 5.99961C10.0659 5.99961 10.1309 6.01257 10.1916 6.03773C10.2523 6.06289 10.3075 6.09977 10.3539 6.14626ZM13.4752 3.02501C13.1502 2.69997 12.7643 2.44213 12.3397 2.26621C11.915 2.0903 11.4598 1.99976 11.0002 1.99976C10.5405 1.99976 10.0854 2.0903 9.6607 2.26621C9.23604 2.44213 8.85019 2.69997 8.52518 3.02501L6.64643 4.90313C6.55261 4.99695 6.4999 5.1242 6.4999 5.25688C6.4999 5.38957 6.55261 5.51681 6.64643 5.61063C6.74025 5.70445 6.8675 5.75716 7.00018 5.75716C7.13286 5.75716 7.26011 5.70445 7.35393 5.61063L9.23268 3.73563C9.70323 3.27542 10.3363 3.01933 10.9945 3.02296C11.6527 3.02658 12.2829 3.28962 12.7483 3.75499C13.2138 4.22037 13.4769 4.85052 13.4807 5.50871C13.4844 6.16689 13.2284 6.8 12.7683 7.27063L10.8889 9.14938C10.7951 9.24312 10.7424 9.37029 10.7423 9.50291C10.7423 9.63554 10.7949 9.76275 10.8886 9.85657C10.9824 9.95039 11.1095 10.0031 11.2421 10.0032C11.3748 10.0032 11.502 9.95062 11.5958 9.85688L13.4752 7.97501C13.8002 7.65 14.0581 7.26415 14.234 6.83948C14.4099 6.41482 14.5004 5.95966 14.5004 5.50001C14.5004 5.04035 14.4099 4.5852 14.234 4.16053C14.0581 3.73587 13.8002 3.35002 13.4752 3.02501ZM8.64643 11.3888L6.76768 13.2675C6.53648 13.5039 6.26068 13.6921 5.95625 13.8212C5.65182 13.9502 5.32482 14.0176 4.99416 14.0194C4.66351 14.0213 4.33578 13.9575 4.02995 13.8318C3.72412 13.706 3.44626 13.5209 3.21247 13.2871C2.97868 13.0533 2.7936 12.7754 2.66794 12.4695C2.54229 12.1637 2.47855 11.8359 2.48043 11.5053C2.48231 11.1746 2.54977 10.8476 2.67889 10.5432C2.80802 10.2388 2.99625 9.96304 3.23268 9.73188L5.1108 7.85376C5.20462 7.75994 5.25733 7.63269 5.25733 7.50001C5.25733 7.36733 5.20462 7.24008 5.1108 7.14626C5.01698 7.05244 4.88974 6.99973 4.75705 6.99973C4.62437 6.99973 4.49712 7.05244 4.4033 7.14626L2.52518 9.02501C1.86877 9.68142 1.5 10.5717 1.5 11.5C1.5 12.4283 1.86877 13.3186 2.52518 13.975C3.18159 14.6314 4.07187 15.0002 5.00018 15.0002C5.92848 15.0002 6.81877 14.6314 7.47518 13.975L9.35393 12.0956C9.44767 12.0018 9.50029 11.8746 9.50024 11.742C9.50018 11.6094 9.44744 11.4822 9.35362 11.3884C9.2598 11.2947 9.13258 11.2421 8.99996 11.2421C8.86733 11.2422 8.74017 11.2949 8.64643 11.3888Z" fill="#4A4FB4"/>
</svg>
