<svg width="12" height="13" viewBox="0 0 12 13" fill="none" xmlns="http://www.w3.org/2000/svg">
<path d="M10.375 4.875H4.25V3.5625C4.25 3.09837 4.43437 2.65325 4.76256 2.32506C5.09075 1.99687 5.53587 1.8125 6 1.8125C6.84055 1.8125 7.59688 2.41406 7.75875 3.21195C7.78278 3.3247 7.85034 3.42341 7.94675 3.48662C8.04316 3.54983 8.16061 3.57243 8.27359 3.54952C8.38657 3.5266 8.48595 3.46002 8.55011 3.36425C8.61427 3.26848 8.63804 3.15125 8.61625 3.03805C8.36906 1.8207 7.26875 0.9375 6 0.9375C5.30403 0.938224 4.63677 1.21502 4.14464 1.70714C3.65252 2.19927 3.37572 2.86653 3.375 3.5625V4.875H1.625C1.39294 4.875 1.17038 4.96719 1.00628 5.13128C0.842187 5.29538 0.75 5.51794 0.75 5.75V11.875C0.75 12.1071 0.842187 12.3296 1.00628 12.4937C1.17038 12.6578 1.39294 12.75 1.625 12.75H10.375C10.6071 12.75 10.8296 12.6578 10.9937 12.4937C11.1578 12.3296 11.25 12.1071 11.25 11.875V5.75C11.25 5.51794 11.1578 5.29538 10.9937 5.13128C10.8296 4.96719 10.6071 4.875 10.375 4.875ZM10.375 11.875H1.625V5.75H10.375V11.875ZM6.65625 8.8125C6.65625 8.94229 6.61776 9.06917 6.54565 9.17709C6.47354 9.28501 6.37105 9.36913 6.25114 9.4188C6.13122 9.46847 5.99927 9.48146 5.87197 9.45614C5.74467 9.43082 5.62774 9.36832 5.53596 9.27654C5.44418 9.18476 5.38168 9.06783 5.35636 8.94053C5.33104 8.81323 5.34403 8.68128 5.3937 8.56136C5.44337 8.44145 5.52749 8.33896 5.63541 8.26685C5.74333 8.19474 5.87021 8.15625 6 8.15625C6.17405 8.15625 6.34097 8.22539 6.46404 8.34846C6.58711 8.47153 6.65625 8.63845 6.65625 8.8125Z" fill="white"/>
</svg>
