<svg width="16" height="16" viewBox="0 0 16 16" fill="none" xmlns="http://www.w3.org/2000/svg">
    <path d="M15.3 9.4a.5.5 0 0 1-.7-.1A3.225 3.225 0 0 0 12 8a.5.5 0 0 1 0-1 1.5 1.5 0 1 0-1.453-1.875.5.5 0 1 1-.968-.25 2.5 2.5 0 1 1 4.108 2.47c.68.294 1.271.76 1.715 1.354a.5.5 0 0 1-.102.701zm-3.368 3.85a.5.5 0 1 1-.864.5 3.564 3.564 0 0 0-6.135 0 .5.5 0 1 1-.865-.5 4.504 4.504 0 0 1 2.108-1.87 3 3 0 1 1 3.648 0 4.504 4.504 0 0 1 2.108 1.87zM8 11a2 2 0 1 0 0-4 2 2 0 0 0 0 4zM4.5 7.5A.5.5 0 0 0 4 7a1.5 1.5 0 1 1 1.452-1.875.5.5 0 1 0 .97-.25 2.5 2.5 0 1 0-4.11 2.47c-.679.294-1.269.761-1.712 1.354a.5.5 0 1 0 .8.601A3.225 3.225 0 0 1 4 8a.5.5 0 0 0 .5-.5z" fill="#fff"/>
</svg>
