<svg width="11" height="10" viewBox="0 0 11 10" fill="none" xmlns="http://www.w3.org/2000/svg">
<path d="M9.37969 2.86592L7.63399 1.12061C7.57595 1.06256 7.50704 1.01651 7.4312 0.985089C7.35537 0.953671 7.27408 0.9375 7.19199 0.9375C7.10991 0.9375 7.02862 0.953671 6.95278 0.985089C6.87695 1.01651 6.80804 1.06256 6.75 1.12061L1.93321 5.93741C1.87492 5.99523 1.8287 6.06407 1.79725 6.13991C1.7658 6.21576 1.74974 6.2971 1.75 6.3792V8.12491C1.75 8.29067 1.81585 8.44964 1.93306 8.56685C2.05027 8.68406 2.20924 8.74991 2.375 8.74991H8.9375C9.02038 8.74991 9.09987 8.71698 9.15847 8.65838C9.21708 8.59977 9.25 8.52029 9.25 8.43741C9.25 8.35453 9.21708 8.27504 9.15847 8.21643C9.09987 8.15783 9.02038 8.12491 8.9375 8.12491H5.00469L9.37969 3.74991C9.43774 3.69187 9.48379 3.62296 9.51521 3.54712C9.54663 3.47129 9.5628 3.39 9.5628 3.30791C9.5628 3.22583 9.54663 3.14454 9.51521 3.0687C9.48379 2.99287 9.43774 2.92396 9.37969 2.86592ZM4.12071 8.12491H2.375V6.3792L5.8125 2.9417L7.55821 4.68741L4.12071 8.12491ZM8 4.24561L6.25469 2.49991L7.19219 1.56241L8.9375 3.30811L8 4.24561Z" fill="#474747"/>
</svg>
