<svg width="15" height="14" viewBox="0 0 15 14" fill="none" xmlns="http://www.w3.org/2000/svg">
<path d="M12.584 7C12.584 7.11603 12.5379 7.22731 12.4558 7.30936C12.3738 7.39141 12.2625 7.4375 12.1465 7.4375H7.77148V11.8125C7.77148 11.9285 7.72539 12.0398 7.64334 12.1219C7.5613 12.2039 7.45002 12.25 7.33398 12.25C7.21795 12.25 7.10667 12.2039 7.02463 12.1219C6.94258 12.0398 6.89648 11.9285 6.89648 11.8125V7.4375H2.52148C2.40545 7.4375 2.29417 7.39141 2.21213 7.30936C2.13008 7.22731 2.08398 7.11603 2.08398 7C2.08398 6.88397 2.13008 6.77269 2.21213 6.69064C2.29417 6.60859 2.40545 6.5625 2.52148 6.5625H6.89648V2.1875C6.89648 2.07147 6.94258 1.96019 7.02463 1.87814C7.10667 1.79609 7.21795 1.75 7.33398 1.75C7.45002 1.75 7.5613 1.79609 7.64334 1.87814C7.72539 1.96019 7.77148 2.07147 7.77148 2.1875V6.5625H12.1465C12.2625 6.5625 12.3738 6.60859 12.4558 6.69064C12.5379 6.77269 12.584 6.88397 12.584 7Z" fill="#474747"/>
</svg>
