<svg width="14" height="15" viewBox="0 0 14 15" fill="none" xmlns="http://www.w3.org/2000/svg">
<path d="M12.25 7.5C12.25 7.61603 12.2039 7.72731 12.1219 7.80936C12.0398 7.89141 11.9285 7.9375 11.8125 7.9375H7.4375V12.3125C7.4375 12.4285 7.39141 12.5398 7.30936 12.6219C7.22731 12.7039 7.11603 12.75 7 12.75C6.88397 12.75 6.77269 12.7039 6.69064 12.6219C6.60859 12.5398 6.5625 12.4285 6.5625 12.3125V7.9375H2.1875C2.07147 7.9375 1.96019 7.89141 1.87814 7.80936C1.79609 7.72731 1.75 7.61603 1.75 7.5C1.75 7.38397 1.79609 7.27269 1.87814 7.19064C1.96019 7.10859 2.07147 7.0625 2.1875 7.0625H6.5625V2.6875C6.5625 2.57147 6.60859 2.46019 6.69064 2.37814C6.77269 2.29609 6.88397 2.25 7 2.25C7.11603 2.25 7.22731 2.29609 7.30936 2.37814C7.39141 2.46019 7.4375 2.57147 7.4375 2.6875V7.0625H11.8125C11.9285 7.0625 12.0398 7.10859 12.1219 7.19064C12.2039 7.27269 12.25 7.38397 12.25 7.5Z" fill="white"/>
</svg>
