<svg width="16" height="16" viewBox="0 0 16 16" fill="none" xmlns="http://www.w3.org/2000/svg">
    <path d="m7.146 9.646 6-6a.501.501 0 0 1 .708.708l-6 6a.5.5 0 1 1-.708-.708zM8 5.5c.434 0 .866.07 1.277.208a.5.5 0 1 0 .32-.947 5 5 0 0 0-6.566 5.294.5.5 0 0 0 .496.445c.018 0 .037 0 .055-.003a.5.5 0 0 0 .442-.552A4.004 4.004 0 0 1 8 5.5zm6.234.812a.5.5 0 1 0-.89.457 6.015 6.015 0 0 1 .312 4.732l-11.319-.005A6.015 6.015 0 0 1 8 3.5h.055c.931.006 1.848.23 2.676.656a.5.5 0 1 0 .457-.89 7 7 0 0 0-9.792 8.563 1.004 1.004 0 0 0 .945.671h11.317a1 1 0 0 0 .944-.67 7.02 7.02 0 0 0-.368-5.518z" fill="#fff"/>
</svg>
