<svg width="14" height="15" viewBox="0 0 14 15" fill="none" xmlns="http://www.w3.org/2000/svg">
<path d="M9.62489 9.25004C9.33304 9.24995 9.04414 9.30842 8.77529 9.42199C8.50645 9.53556 8.26313 9.70191 8.05973 9.91121L5.53864 8.29082C5.73695 7.78229 5.73695 7.2178 5.53864 6.70926L8.05973 5.08887C8.43842 5.47678 8.94765 5.71026 9.4887 5.74404C10.0298 5.77783 10.5641 5.60951 10.9881 5.27172C11.4121 4.93393 11.6955 4.45073 11.7835 3.91582C11.8715 3.3809 11.7577 2.83237 11.4643 2.37657C11.1708 1.92078 10.7185 1.59019 10.1952 1.4489C9.67179 1.30761 9.1146 1.36569 8.63162 1.61187C8.14864 1.85805 7.77427 2.27481 7.58111 2.78133C7.38794 3.28785 7.38973 3.84805 7.58614 4.35332L5.06504 5.97371C4.76146 5.66204 4.37182 5.44797 3.94594 5.35889C3.52006 5.2698 3.07729 5.30974 2.67423 5.4736C2.27117 5.63746 1.92613 5.91779 1.68321 6.27876C1.4403 6.63973 1.31055 7.06495 1.31055 7.50004C1.31055 7.93514 1.4403 8.36035 1.68321 8.72132C1.92613 9.0823 2.27117 9.36263 2.67423 9.52649C3.07729 9.69035 3.52006 9.73028 3.94594 9.6412C4.37182 9.55211 4.76146 9.33805 5.06504 9.02637L7.58614 10.6468C7.41725 11.0824 7.39225 11.5606 7.51482 12.0114C7.63739 12.4623 7.90108 12.862 8.26727 13.1521C8.63347 13.4423 9.08293 13.6075 9.54985 13.6237C10.0168 13.6399 10.4766 13.5062 10.862 13.2422C11.2474 12.9781 11.5382 12.5976 11.6917 12.1564C11.8452 11.7151 11.8535 11.2363 11.7152 10.79C11.5769 10.3438 11.2993 9.95351 10.9232 9.67639C10.5471 9.39928 10.0921 9.24987 9.62489 9.25004ZM9.62489 2.25004C9.88448 2.25004 10.1382 2.32702 10.3541 2.47124C10.5699 2.61546 10.7381 2.82044 10.8375 3.06027C10.9368 3.3001 10.9628 3.564 10.9122 3.8186C10.8615 4.0732 10.7365 4.30706 10.553 4.49062C10.3694 4.67418 10.1355 4.79918 9.88094 4.84982C9.62634 4.90047 9.36244 4.87448 9.12262 4.77514C8.88279 4.6758 8.6778 4.50757 8.53358 4.29173C8.38936 4.07589 8.31239 3.82213 8.31239 3.56254C8.31239 3.21445 8.45067 2.88061 8.69681 2.63447C8.94295 2.38832 9.27679 2.25004 9.62489 2.25004ZM3.49989 8.81254C3.2403 8.81254 2.98654 8.73557 2.7707 8.59135C2.55486 8.44713 2.38664 8.24214 2.2873 8.00232C2.18796 7.76249 2.16196 7.49859 2.21261 7.24399C2.26325 6.98939 2.38825 6.75552 2.57181 6.57197C2.75537 6.38841 2.98923 6.26341 3.24383 6.21276C3.49843 6.16212 3.76233 6.18811 4.00216 6.28745C4.24199 6.38679 4.44697 6.55502 4.59119 6.77086C4.73541 6.9867 4.81239 7.24046 4.81239 7.50004C4.81239 7.84814 4.67411 8.18198 4.42797 8.42812C4.18182 8.67426 3.84798 8.81254 3.49989 8.81254ZM9.62489 12.75C9.3653 12.75 9.11154 12.6731 8.8957 12.5288C8.67986 12.3846 8.51164 12.1796 8.4123 11.9398C8.31296 11.7 8.28696 11.4361 8.33761 11.1815C8.38825 10.9269 8.51325 10.693 8.69681 10.5095C8.88037 10.3259 9.11423 10.2009 9.36883 10.1503C9.62343 10.0996 9.88733 10.1256 10.1272 10.225C10.367 10.3243 10.572 10.4925 10.7162 10.7084C10.8604 10.9242 10.9374 11.178 10.9374 11.4375C10.9374 11.7856 10.7991 12.1195 10.553 12.3656C10.3068 12.6118 9.97298 12.75 9.62489 12.75Z" fill="#191919"/>
</svg>
