<svg width="17" height="16" viewBox="0 0 17 16" fill="none" xmlns="http://www.w3.org/2000/svg">
<g clip-path="url(#clip0_3980_13689)">
<path d="M8.93965 16.0004C13.358 16.0004 16.9399 12.4186 16.9399 8.0002C16.9399 3.58181 13.358 0 8.93965 0C4.52126 0 0.939453 3.58181 0.939453 8.0002C0.939453 12.4186 4.52126 16.0004 8.93965 16.0004Z" fill="black"/>
<path d="M7.82634 6.65185V6.2152C7.67664 6.19473 7.52453 6.18188 7.36922 6.18188C5.499 6.18188 3.97754 7.70334 3.97754 9.57356C3.97754 10.721 4.55105 11.7364 5.42555 12.3504C4.86088 11.7444 4.51452 10.9325 4.51452 10.0411C4.51452 8.19779 5.99304 6.69439 7.82634 6.65145V6.65185Z" fill="#25F4EE"/>
<path d="M7.90576 11.5906C8.74014 11.5906 9.4208 10.9268 9.45171 10.1001L9.45451 2.71511H10.8038C10.7757 2.56341 10.7605 2.40729 10.7605 2.24756H8.91753L8.91472 9.63251C8.88382 10.4597 8.20315 11.1231 7.36878 11.1231C7.10952 11.1231 6.8651 11.0581 6.65039 10.9453C6.93213 11.3354 7.38925 11.591 7.90617 11.591L7.90576 11.5906Z" fill="#25F4EE"/>
<path d="M13.325 5.22154V4.81098C12.8104 4.81098 12.3308 4.65807 11.9287 4.396C12.2867 4.80696 12.7731 5.10355 13.325 5.22154Z" fill="#25F4EE"/>
<path d="M11.9288 4.39539C11.5367 3.94509 11.2983 3.35714 11.2983 2.7146H10.8047C10.9347 3.41653 11.3513 4.01894 11.9288 4.39539Z" fill="#FE2C55"/>
<path d="M7.36946 8.02479C6.51542 8.02479 5.82031 8.7195 5.82031 9.57394C5.82031 10.1687 6.15783 10.6856 6.65067 10.9449C6.46686 10.6905 6.3573 10.3786 6.3573 10.0415C6.3573 9.18745 7.05241 8.49234 7.90645 8.49234C8.06578 8.49234 8.21869 8.51883 8.36357 8.56378V6.68272C8.21387 6.66226 8.06177 6.64941 7.90645 6.64941C7.87956 6.64941 7.85307 6.65102 7.82618 6.65142V8.09622C7.6817 8.05087 7.52839 8.02479 7.36906 8.02479H7.36946Z" fill="#FE2C55"/>
<path d="M13.3248 5.22144V6.6538C12.3693 6.6538 11.4839 6.34798 10.7611 5.82946V9.57431C10.7611 11.4445 9.23966 12.966 7.36944 12.966C6.64664 12.966 5.97641 12.738 5.42578 12.3511C6.04544 13.0162 6.92798 13.4335 7.90683 13.4335C9.77705 13.4335 11.2985 11.9121 11.2985 10.0419V6.29701C12.0213 6.81594 12.9067 7.12135 13.8622 7.12135V5.27842C13.678 5.27842 13.4982 5.25836 13.3252 5.22144H13.3248Z" fill="#FE2C55"/>
<path d="M10.761 9.57381V5.82895C11.4838 6.34788 12.3692 6.6533 13.3247 6.6533V5.22093C12.7729 5.10294 12.2865 4.80635 11.9285 4.39539C11.351 4.01894 10.9344 3.41653 10.8044 2.7146H9.45507L9.45227 10.0996C9.42136 10.9267 8.7407 11.5901 7.90633 11.5901C7.38941 11.5901 6.93229 11.3349 6.65055 10.9444C6.15731 10.6847 5.82019 10.1682 5.82019 9.5734C5.82019 8.71936 6.5153 8.02425 7.36934 8.02425C7.52867 8.02425 7.68158 8.05074 7.82646 8.09569V6.65089C5.99316 6.69383 4.51465 8.19723 4.51465 10.0406C4.51465 10.9323 4.861 11.7438 5.42568 12.3498C5.97671 12.7367 6.64654 12.9647 7.36934 12.9647C9.23956 12.9647 10.761 11.4432 10.761 9.573V9.57381Z" fill="white"/>
</g>
<defs>
<clipPath id="clip0_3980_13689">
<rect width="16" height="16" fill="white" transform="translate(0.939453)"/>
</clipPath>
</defs>
</svg>
