<svg width="16" height="17" viewBox="0 0 16 17" fill="none" xmlns="http://www.w3.org/2000/svg">
<path opacity="0.2" d="M13.5 6.5V13.5C13.5 13.6326 13.4473 13.7598 13.3536 13.8536C13.2598 13.9473 13.1326 14 13 14H3C2.86739 14 2.74021 13.9473 2.64645 13.8536C2.55268 13.7598 2.5 13.6326 2.5 13.5V6.5C2.5 6.36739 2.55268 6.24021 2.64645 6.14645C2.74021 6.05268 2.86739 6 3 6H13C13.1326 6 13.2598 6.05268 13.3536 6.14645C13.4473 6.24021 13.5 6.36739 13.5 6.5Z" fill="#191919"/>
<path d="M13 5.5H6V4C6 3.46957 6.21071 2.96086 6.58579 2.58579C6.96086 2.21071 7.46957 2 8 2C8.96063 2 9.825 2.6875 10.01 3.59938C10.0375 3.72823 10.1147 3.84104 10.2249 3.91328C10.335 3.98551 10.4693 4.01135 10.5984 3.98516C10.7275 3.95898 10.8411 3.88289 10.9144 3.77343C10.9877 3.66397 11.0149 3.53 10.99 3.40062C10.7075 2.00937 9.45 1 8 1C7.2046 1.00083 6.44202 1.31716 5.87959 1.87959C5.31716 2.44202 5.00083 3.2046 5 4V5.5H3C2.73478 5.5 2.48043 5.60536 2.29289 5.79289C2.10536 5.98043 2 6.23478 2 6.5V13.5C2 13.7652 2.10536 14.0196 2.29289 14.2071C2.48043 14.3946 2.73478 14.5 3 14.5H13C13.2652 14.5 13.5196 14.3946 13.7071 14.2071C13.8946 14.0196 14 13.7652 14 13.5V6.5C14 6.23478 13.8946 5.98043 13.7071 5.79289C13.5196 5.60536 13.2652 5.5 13 5.5ZM13 13.5H3V6.5H13V13.5Z" fill="#191919"/>
</svg>
