<svg width="14" height="15" viewBox="0 0 14 15" fill="none" xmlns="http://www.w3.org/2000/svg">
<path d="M12.25 8.37498V11.875C12.25 11.991 12.2039 12.1023 12.1219 12.1843C12.0398 12.2664 11.9285 12.3125 11.8125 12.3125H2.1875C2.07147 12.3125 1.96019 12.2664 1.87814 12.1843C1.79609 12.1023 1.75 11.991 1.75 11.875V8.37498C1.75 8.25895 1.79609 8.14767 1.87814 8.06562C1.96019 7.98357 2.07147 7.93748 2.1875 7.93748C2.30353 7.93748 2.41481 7.98357 2.49686 8.06562C2.57891 8.14767 2.625 8.25895 2.625 8.37498V11.4375H11.375V8.37498C11.375 8.25895 11.4211 8.14767 11.5031 8.06562C11.5852 7.98357 11.6965 7.93748 11.8125 7.93748C11.9285 7.93748 12.0398 7.98357 12.1219 8.06562C12.2039 8.14767 12.25 8.25895 12.25 8.37498ZM5.12203 4.74701L6.5625 3.30599V8.37498C6.5625 8.49101 6.60859 8.60229 6.69064 8.68434C6.77269 8.76639 6.88397 8.81248 7 8.81248C7.11603 8.81248 7.22731 8.76639 7.30936 8.68434C7.39141 8.60229 7.4375 8.49101 7.4375 8.37498V3.30599L8.87797 4.74701C8.96006 4.8291 9.0714 4.87522 9.1875 4.87522C9.3036 4.87522 9.41494 4.8291 9.49703 4.74701C9.57912 4.66492 9.62524 4.55358 9.62524 4.43748C9.62524 4.32138 9.57912 4.21004 9.49703 4.12795L7.30953 1.94045C7.2689 1.89977 7.22065 1.8675 7.16754 1.84548C7.11442 1.82347 7.05749 1.81213 7 1.81213C6.94251 1.81213 6.88558 1.82347 6.83246 1.84548C6.77935 1.8675 6.7311 1.89977 6.69047 1.94045L4.50297 4.12795C4.42088 4.21004 4.37476 4.32138 4.37476 4.43748C4.37476 4.55358 4.42088 4.66492 4.50297 4.74701C4.58506 4.8291 4.6964 4.87522 4.8125 4.87522C4.9286 4.87522 5.03994 4.8291 5.12203 4.74701Z" fill="white"/>
</svg>
