<svg width="20" height="14" viewBox="0 0 20 14" fill="none" xmlns="http://www.w3.org/2000/svg">
<path d="M19.5227 2.18614C19.2934 1.3256 18.6178 0.647951 17.7599 0.417968C16.2049 0 9.9697 -9.53674e-07 9.9697 -9.53674e-07C9.9697 -9.53674e-07 3.73448 0 2.1795 0.417968C1.32162 0.647951 0.645941 1.3256 0.416657 2.18614C0 3.74582 0 7 0 7C0 7 0 10.2541 0.416657 11.814C0.645941 12.6744 1.32162 13.352 2.1795 13.5821C3.73448 14 9.9697 14 9.9697 14C9.9697 14 16.2049 14 17.7599 13.5821C18.6178 13.352 19.2934 12.6744 19.5227 11.814C19.9394 10.2541 19.9394 7 19.9394 7C19.9394 7 19.9394 3.74582 19.5227 2.18614Z" fill="#ED1D24"/>
<path d="M7.93066 9.95459L13.1421 7.0002L7.93066 4.04552V9.95459Z" fill="white"/>
</svg>
